<?xml version="1.0" encoding="UTF-8" standalone="no"?>
<!-- Created with Inkscape (http://www.inkscape.org/) -->

<svg
   viewBox="0 0 10000 10000"
   version="1.1"
   id="svg1"
   xml:space="preserve"
   width="10000"
   height="10000"
   xmlns="http://www.w3.org/2000/svg"
   xmlns:svg="http://www.w3.org/2000/svg"><defs
     id="defs1" /><g
     id="layer1"><path
       style="fill:#ff002a;fill-opacity:1"
       d="M 76.311715,96.795593 C 71.979133,94.628083 64.832746,83.217893 60.758606,71.962903 59.498316,68.481297 58.701994,67.446687 57.643015,67.915017 37.957947,76.620689 20.961231,60.757357 16.423011,29.443669 12.327995,1.1880784 21.000876,-3.7949066 34.102492,19.285961 c 1.70225,2.998821 1.70225,2.998821 2.735043,2.352377 10.280254,-6.434595 24.950957,-3.238591 33.046552,7.199171 15.374556,19.822625 20.597813,75.047141 6.427628,67.958084 z m 3.880524,-0.47945 c 7.023202,-5.38506 3.701064,-40.236972 -5.6173,-58.930022 C 66.354026,20.894606 52.229251,14.656199 38.391583,21.405229 c -2.646768,1.290906 -2.570563,0.916136 -0.852025,4.190186 0.812598,1.548109 2.280209,4.416335 3.261361,6.373835 1.737238,3.465973 1.796032,3.556703 2.247173,3.467803 17.415223,-3.431811 28.656164,6.23801 33.111839,28.483876 C 80.56137,85.896013 73.553454,91.837233 63.051489,75.03409 61.694012,72.862126 61.577296,72.74012 62.070323,74.008449 67.793774,88.732233 76.348708,99.26317 80.192239,96.316143 Z M 72.809763,81.901623 C 77.22941,80.133229 75.777008,63.420383 70.220811,52.110453 65.305738,42.105563 58.40022,37.524959 49.294697,38.229633 c -1.394515,0.107921 -3.131635,0.242142 -3.860267,0.298269 -0.728633,0.05613 -1.324787,0.131712 -1.324787,0.167967 0,0.03626 0.231877,0.525264 0.515282,1.086685 0.628444,1.244942 0.274656,1.182877 4.956461,0.869502 11.958041,-0.800409 20.6545,7.939086 23.91365,24.031992 3.029517,14.959036 -1.918465,20.251345 -9.277105,9.922692 -0.452132,-0.634616 -0.857992,-1.153847 -0.901913,-1.153847 -0.139844,0 1.932501,2.939565 3.086991,4.378813 1.837101,2.290226 3.747076,3.849617 5.113811,4.175157 0.297848,0.0709 0.559216,0.13686 0.580818,0.14648 0.0216,0.01 0.342058,-0.10365 0.712125,-0.25172 z m -0.383909,-2.839025 c 2.937553,-2.937543 1.596168,-15.552086 -2.591122,-24.36721 -4.385726,-9.232872 -10.26451,-13.718733 -17.982839,-13.721975 -2.628605,-0.0011 -6.374728,0.347134 -6.374728,0.592592 0,0.851388 0.474186,1.003213 2.633911,0.843325 9.125995,-0.675611 13.587282,1.180552 18.402237,7.656435 8.929572,12.009843 9.463476,35.074308 0.624595,26.982312 -0.543856,-0.497901 -1.027114,-0.86699 -1.073906,-0.820198 -0.04679,0.04679 0.530817,0.664464 1.283575,1.372604 2.394118,2.252215 3.864763,2.675639 5.078277,1.462125 z m -3.398592,-6.17883 c 3.0909,-2.798153 -0.842581,-15.670822 -6.41544,-20.995099 -5.466174,-5.222352 -13.564652,-4.569315 -10.918731,0.880453 0.824919,1.699073 1.431182,2.501456 1.049321,1.388764 -0.931201,-2.71339 0.308545,-4.233124 3.418514,-4.190561 6.352381,0.08694 13.110173,9.388079 13.151335,18.100942 0.02074,4.389392 -1.643116,5.208266 -5.064719,2.492629 -0.53431,-0.424067 -0.40806,-0.246443 0.460393,0.647741 1.924346,1.981361 3.364221,2.539777 4.319327,1.675131 z M 50.58973,69.259539 c 2.938059,-0.409788 7.847234,-1.870196 7.675304,-2.283291 C 57.911346,66.12645 56.96855,64.565115 56.8088,64.564627 56.695046,64.564279 55.810431,64.764205 54.842988,65.008906 35.418551,69.922061 22.002519,56.728934 17.973195,28.751705 14.965611,7.8688286 20.963909,1.0543394 30.424381,14.606276 c 1.778162,2.547181 1.970229,2.79991 1.526789,2.009011 C 21.610279,-1.8282826 13.76453,3.0260514 16.479512,26.187936 19.925735,55.588139 32.725883,71.751125 50.58973,69.259549 Z m 16.468366,-0.59298 c 1.75167,-3.506454 -2.659936,-12.680752 -7.16398,-14.898085 -4.218887,-2.076951 -5.7475,0.386328 -3.255472,5.24602 0.765319,1.492444 0.97844,1.575398 0.423613,0.164885 -1.970163,-5.008662 1.621163,-6.486757 5.671408,-2.334202 4.990804,5.116872 5.561526,14.551329 0.633295,10.468821 -0.710308,-0.588414 -0.710308,-0.588414 0.05892,0.231344 1.829227,1.94938 3.032887,2.320934 3.632213,1.121217 z M 49.091532,64.556582 c 1.588619,-0.160062 6.706106,-1.108581 7.026032,-1.302265 0.303903,-0.183983 -0.393122,-1.087648 -0.77398,-1.003433 C 43.633378,64.840225 36.052572,62.85839 29.979245,55.619936 16.77559,39.883252 13.92424,0.76669236 26.759217,11.445632 c 0.918016,0.763807 0.881614,0.71087 -0.346912,-0.504486 -11.78286,-11.65654863 -10.614732,25.486394 1.349809,42.919849 5.588107,8.142397 12.461561,11.589074 21.329418,10.695587 z m 2.615704,-3.255685 c 3.42191,-0.491529 3.300546,-0.450126 2.994684,-1.021635 -0.22774,-0.425535 -0.629556,-0.422607 -4.128734,0.03009 C 41.641992,61.464806 35.215813,59.131305 30.115098,52.880525 18.08678,38.140171 15.806227,3.9389334 27.493071,13.558243 28.639559,14.501905 28.639559,14.501905 27.345906,13.250902 16.610905,2.8698284 17.016,33.72931 27.837738,50.717851 c 5.796326,9.099381 12.746304,12.180801 23.869498,10.583046 z m -0.674515,-1.430528 c 0.94017,-0.139033 2.036324,-0.255228 2.435897,-0.258209 0.479359,-0.0036 0.726496,-0.08101 0.726496,-0.227643 0,-0.703101 -1.101481,-0.792851 -4.615385,-0.376068 C 40.699808,60.061694 34.201684,57.252386 29.202399,50.198803 19.173063,36.048228 17.166629,8.0430896 26.588633,13.716724 c 1.567005,0.943603 1.44902,0.721038 -0.327475,-0.61774 -8.143348,-6.1368775 -7.886182,18.592047 0.351959,33.844221 5.704001,10.560446 13.285169,14.573738 24.419604,12.927164 z m 7.390388,-0.700312 c -0.585742,-2.823261 1.809187,-3.162758 4.30388,-0.610104 0.779778,0.797895 0.844786,0.838872 0.382404,0.241042 -2.911715,-3.764663 -6.155571,-3.630249 -4.970685,0.205967 0.410567,1.329261 0.541981,1.404623 0.284401,0.163095 z m 5.819921,-7.29836 C 60.141741,47.064421 53.724078,45.312641 49.199652,47.76542 c -0.628394,0.340665 -0.860259,0.393876 -1.045696,0.239977 -0.184116,-0.152803 -0.289387,-0.136151 -0.463188,0.07327 -1.233271,1.486001 -6.003334,1.901889 -9.021194,0.786532 -4.946609,-1.828193 -9.178005,-7.032081 -11.559116,-14.215721 -0.420703,-1.269231 -0.767992,-2.212459 -0.771753,-2.096061 -0.03041,0.941217 2.217941,6.533623 3.48858,8.677257 4.385556,7.398663 10.156588,10.296414 17.182076,8.627464 1.262789,-0.299984 1.722165,-0.344843 2.094017,-0.204485 0.425574,0.160637 0.476351,0.142121 0.476351,-0.173697 0,-4.061395 9.4906,-2.613977 14.183096,2.163074 1.333245,1.357269 1.518201,1.445343 0.480205,0.22867 z m -17.019606,0.114178 c 1.060925,-0.148741 2.178955,-0.2305 2.48451,-0.181687 0.66355,0.106002 0.663936,0.104196 0.151454,-0.707628 -0.73394,-1.162636 -0.751501,-1.167059 -2.808314,-0.707277 C 41.309926,51.672666 36.124856,49.994287 32.35269,45.631496 23.163489,35.003501 22.035106,13.503553 31.107609,21.907995 c 0.929588,0.861138 0.929588,0.861138 0.34188,0.115062 -8.177174,-10.380645 -9.826901,7.667903 -1.904107,20.831546 4.384588,7.284948 10.033861,10.202978 17.678042,9.131272 z m -2.678545,-3.55308 c 2.301385,-0.612884 2.778983,-1.25389 2.05468,-2.757679 -0.411669,-0.854701 -0.411669,-0.854701 -0.425151,-0.141321 -0.05391,2.852201 -5.637226,3.447925 -9.651456,1.029782 -2.081344,-1.253787 -2.894812,-2.00795 -5.115165,-4.74225 -0.402256,-0.495367 -0.389324,-0.452769 0.08016,0.264045 3.082053,4.705713 8.794267,7.482617 13.056932,6.347423 z m -3.000633,-1.642048 c -3.522118,-0.454895 -7.552002,-3.164998 -9.949903,-6.691326 -4.836015,-7.111793 -5.564589,-17.391857 -1.120175,-15.805497 0.798725,0.285091 0.66938,0.03529 -0.215466,-0.416123 -2.380276,-1.214326 -3.51573,1.102728 -2.829597,5.774195 1.412311,9.615583 7.717922,17.280157 14.201906,17.262652 0.854701,-0.0023 0.854701,-0.0023 -0.08676,-0.123901 z m 0.716168,-1.230615 c 1.749754,-0.524239 2.024049,-1.757152 0.979185,-4.401282 -0.570149,-1.442818 -0.873589,-1.82729 -0.402825,-0.510396 1.153033,3.225438 -1.047085,5.068777 -4.694804,3.933478 -1.222299,-0.380422 -1.271457,-0.34631 -0.3652,0.253423 1.352953,0.895341 3.016698,1.164284 4.483644,0.724777 z M 35.5497,43.585082 c -0.227927,-0.256357 -0.918972,-0.969087 -1.535656,-1.583846 -6.094137,-6.075118 -8.219643,-19.005563 -2.724911,-16.576904 0.769231,0.339998 0.769231,0.339998 0.341881,-0.0025 -6.570715,-5.26605 -4.059165,10.88209 2.685484,17.266463 1.43245,1.355933 2.02372,1.785905 1.233202,0.896787 z M 38.541879,39.68 c 1.529799,-1.529801 -3.293862,-9.51418 -6.186476,-10.24018 -1.051947,-0.264022 -0.976543,3.638274 0.111852,5.788523 1.640481,3.240961 4.898068,5.628213 6.074624,4.451657 z M 22.484039,18.463182 c 0.773824,-2.696893 2.278068,-3.696963 4.323403,-2.874337 0.586702,0.235969 0.609266,0.234567 0.293655,-0.01825 -2.571823,-2.060101 -4.879342,0.05651 -5.120464,4.696839 -0.07517,1.446558 -0.07375,1.453202 0.07086,0.332496 0.08116,-0.628956 0.275803,-1.590495 0.432541,-2.136752 z"
       id="path5" /></g></svg>
