<?xml version="1.0" encoding="UTF-8" standalone="no"?>
<!-- Created with Inkscape (http://www.inkscape.org/) -->

<svg
   viewBox="0 0 100 100"
   version="1.1"
   id="svg1"
   xml:space="preserve"
   xmlns="http://www.w3.org/2000/svg"
   xmlns:svg="http://www.w3.org/2000/svg"><defs
     id="defs1" /><g
     id="layer1"><path
       d="m 57.255419,53.028804 c -2.092951,0.04438 -2.486037,2.340912 -0.617016,5.985681 0.765319,1.492444 0.978574,1.575361 0.423747,0.164848 -1.970163,-5.008662 1.621243,-6.486779 5.671488,-2.334224 4.990804,5.116872 5.561784,14.551636 0.633553,10.469128 -0.710308,-0.588414 -0.710317,-0.588764 0.05891,0.230994 1.829227,1.94938 3.032494,2.321095 3.63182,1.121378 1.75167,-3.506454 -2.65986,-12.680982 -7.163904,-14.898315 -1.054722,-0.519238 -1.940948,-0.754284 -2.638599,-0.73949 z"
       style="display:inline;fill:#ff002a"
       id="path18" /><path
       d="m 55.046252,48.317981 c -2.930094,-0.161915 -4.841614,1.385396 -3.353284,4.450891 0.824919,1.699073 1.43141,2.501754 1.049549,1.389062 -0.931201,-2.71339 0.308427,-4.233005 3.418396,-4.190442 6.352381,0.08694 13.109973,9.387841 13.151135,18.100704 0.02074,4.389392 -1.642688,5.208508 -5.064291,2.492871 -0.53431,-0.424067 -0.408532,-0.246678 0.459921,0.647506 1.924346,1.981361 3.364527,2.539996 4.319633,1.67535 3.0909,-2.798153 -0.84277,-15.670824 -6.415629,-20.995101 -2.391451,-2.284779 -5.286468,-3.444908 -7.56543,-3.570841 z"
       style="display:inline;fill:#ff002a"
       id="path17" /><path
       d="m 42.607218,39.850797 c -0.01445,0.04924 0.05291,0.304049 0.229443,0.797884 1.153033,3.225438 -1.047084,5.068393 -4.694803,3.933094 -1.222299,-0.380422 -1.271093,-0.346002 -0.364836,0.253731 1.352953,0.895341 3.016501,1.16401 4.483447,0.724503 1.749754,-0.524239 2.024133,-1.757151 0.979269,-4.401281 -0.356343,-0.901762 -0.608443,-1.38999 -0.63252,-1.307931 z"
       style="display:inline;fill:#ff002a"
       id="path15" /><path
       d="m 50.976216,38.159428 c -0.551959,0.0027 -1.112456,0.02624 -1.681551,0.07028 -1.394515,0.107921 -3.131597,0.242046 -3.860229,0.298173 -0.728633,0.05613 -1.297458,0.06522 -1.324984,0.167948 -0.04607,0.171921 0.232326,0.525334 0.515731,1.086755 0.628444,1.244942 0.274481,1.18309 4.956286,0.869715 11.958041,-0.800409 20.654636,7.938702 23.913786,24.031608 3.029517,14.959036 -1.91883,20.251561 -9.27747,9.922908 -0.452132,-0.634616 -0.857833,-1.153935 -0.901754,-1.153935 -0.139844,0 1.93266,2.939813 3.08715,4.379061 1.837101,2.290226 3.746648,3.849399 5.113383,4.174939 0.297848,0.0709 0.559241,0.136624 0.580843,0.146244 0.0216,0.01 0.342035,-0.103594 0.712102,-0.251664 C 77.229156,80.133066 75.777233,63.420444 70.221036,52.110514 65.613155,42.73093 59.255598,38.118673 50.976216,38.159428 Z"
       style="display:inline;fill:#ff002a"
       id="path13" /><path
       d="m 26.338961,32.553568 c -0.03041,0.941217 2.21752,6.533356 3.488159,8.67699 4.385556,7.398663 10.156925,10.29633 17.182413,8.62738 1.262789,-0.299984 1.731903,-0.04008 2.093929,-0.204122 0.722815,-0.327535 -0.660795,-2.481264 -1.412833,-1.575097 -1.233271,1.486001 -6.003295,1.901872 -9.021155,0.786515 -4.946609,-1.828193 -9.177873,-7.03203 -11.558984,-14.21567 -0.420703,-1.269231 -0.767768,-2.212394 -0.771529,-2.095996 z"
       style="display:inline;fill:#ff002a"
       id="path12" /><path
       d="m 32.171163,29.437479 c -0.854508,0.219046 -0.724265,3.775003 0.296106,5.790861 1.640481,3.240961 4.898008,5.627964 6.074564,4.451408 1.529799,-1.529801 -3.293571,-9.513685 -6.186185,-10.239685 -0.06575,-0.0165 -0.127518,-0.01719 -0.184485,-0.0026 z"
       style="display:inline;fill:#ff002a"
       id="path11" /><path
       d="m 29.028202,23.559285 c -1.609286,0.05571 -2.443673,2.297085 -1.88619,6.092652 1.412311,9.615583 8.005054,17.280017 14.489038,17.262512 0.854701,-0.0023 0.854645,-0.0019 -0.08682,-0.123507 -3.522118,-0.454895 -7.437158,-3.624657 -9.835059,-7.150985 -4.836015,-7.111793 -5.67948,-16.932193 -1.235066,-15.345833 0.798725,0.285091 0.669355,0.0349 -0.215491,-0.416512 -0.446302,-0.227686 -0.859042,-0.331182 -1.230416,-0.318327 z"
       style="display:inline;fill:#ff002a"
       id="path10" /><path
       d="m 49.997465,18.731673 c -3.799533,-0.09566 -7.714166,0.775574 -11.60601,2.673739 -2.646768,1.290906 -2.570683,0.915875 -0.852145,4.189925 0.812598,1.548109 2.280665,4.416271 3.261817,6.373771 1.737238,3.465973 1.79575,3.556905 2.246891,3.468005 17.415223,-3.431811 28.655999,6.238183 33.111674,28.484049 4.401439,21.975084 -2.606279,27.91616 -13.108244,11.113017 -1.357477,-2.171964 -1.474362,-2.294106 -0.981335,-1.025777 5.723451,14.723784 14.27836,25.254709 18.121891,22.307682 C 87.215206,90.931024 83.89314,56.079398 74.574776,37.386348 68.665994,25.533072 59.707382,18.97613 49.997465,18.731673 Z"
       style="display:inline;fill:#ffffff;fill-opacity:1"
       id="path9" /><path
       d="m 26.066626,18.592663 c -4.634282,0.13353 -3.077728,13.757848 3.111955,24.041944 4.384588,7.284948 10.400712,10.423073 18.044893,9.351367 1.060925,-0.148741 2.179048,-0.230714 2.484603,-0.181901 0.66355,0.106002 0.663894,0.104373 0.151412,-0.707451 -0.73394,-1.162636 -0.751802,-1.167232 -2.808615,-0.70745 -5.741148,1.283383 -10.926161,-0.395058 -14.698327,-4.757849 -9.189201,-10.627995 -10.317388,-32.127542 -1.244885,-23.7231 0.929588,0.861138 0.992375,0.806457 0.341581,0.114722 -2.302527,-2.447375 -4.085018,-3.46767 -5.382617,-3.430282 z"
       style="display:inline;fill:#ff002a"
       id="path8" /><path
       d="m 24.191805,12.15378 c -5.95582,-0.638102 -5.044258,20.967325 2.421557,34.789607 5.704001,10.560446 13.284747,14.573434 24.419182,12.92686 0.94017,-0.139033 2.036454,-0.254884 2.436027,-0.257865 0.479359,-0.0036 0.72657,-0.08126 0.72657,-0.227894 0,-0.703101 -1.101318,-0.792987 -4.615222,-0.376204 C 40.699998,60.061529 34.201637,57.252586 29.202352,50.199003 19.173016,36.048428 17.166554,8.0428409 26.588558,13.716475 28.155563,14.660078 28.037424,14.43772 26.260929,13.098942 25.49749,12.52361 24.807924,12.219791 24.191805,12.15378 Z"
       style="display:inline;fill:#ff002a"
       id="path6" /><path
       d="m 23.840922,11.183297 c 0.99516,0.116506 2.163337,0.769939 3.505212,2.067574 1.293653,1.251003 1.293249,1.251136 0.146761,0.307474 -11.686844,-9.6193092 -9.406256,24.581794 2.622062,39.322148 5.100715,6.25078 11.526989,8.584458 20.458183,7.429004 3.499178,-0.452697 3.901207,-0.456024 4.128947,-0.03049 0.305862,0.571509 0.427261,0.530114 -2.994649,1.021643 C 40.584244,62.898406 33.633903,59.817215 27.837577,50.717834 18.368556,35.852861 16.874801,10.367751 23.840922,11.183297 Z m 0.350883,0.970483 c 0.616119,0.06601 1.305685,0.36983 2.069124,0.945162 1.776495,1.338778 1.894634,1.561136 0.327629,0.617533 -9.422004,-5.6736341 -7.415542,22.331953 2.613794,36.482528 4.999285,7.053583 11.497646,9.862526 20.377567,8.809281 3.513904,-0.416783 4.615222,-0.326897 4.615222,0.376204 0,0.146633 -0.247211,0.224294 -0.72657,0.227894 -0.399573,0.003 -1.495857,0.118832 -2.436027,0.257865 C 39.898109,61.516821 32.317363,57.503833 26.613362,46.943387 19.147547,33.121105 18.235985,11.515678 24.191805,12.15378 Z"
       style="display:inline;fill:#ff002a"
       id="path3" /><path
       d="m 21.124292,5.3376587 c -4.14583,-0.2004655 -6.256698,7.0980373 -4.644678,20.8504063 3.446223,29.400203 16.246216,45.562849 34.110063,43.071273 2.938059,-0.409788 7.84743,-1.86997 7.6755,-2.283065 -0.353688,-0.849798 -1.296492,-2.411251 -1.456242,-2.411739 -0.113754,-3.48e-4 -0.998328,0.199716 -1.965771,0.444417 C 35.418727,69.922106 22.002387,56.728962 17.973063,28.751733 14.965479,7.8688568 20.964027,1.0544069 30.424499,14.606343 c 1.778162,2.547181 1.969962,2.800079 1.526522,2.00918 C 27.750034,9.122823 23.960913,5.4748193 21.124292,5.3376587 Z"
       style="display:inline;fill:#ffffff;fill-opacity:1"
       id="path2" /><path
       d="m 20.148124,4.7056559 c -4.292047,0.3138349 -6.0288,8.8442551 -3.725354,24.7380251 4.53822,31.313688 21.535155,47.177225 41.220223,38.471553 1.058979,-0.46833 1.855282,0.566209 3.115572,4.047815 4.07414,11.25499 11.220474,22.665082 15.553056,24.832592 14.170185,7.089059 8.947041,-48.1355 -6.427515,-67.958125 C 61.788511,18.399754 47.117798,15.203877 36.837544,21.638472 35.804751,22.284916 35.804561,22.284982 34.102311,19.286161 28.370354,9.1882816 23.486383,4.461562 20.148124,4.7056559 Z m 0.976168,0.6320028 c 2.836621,0.1371606 6.625742,3.7851643 10.826729,11.2778643 0.44344,0.790899 0.25164,0.538001 -1.526522,-2.00918 -9.460472,-13.5519361 -15.45902,-6.7374862 -12.451436,14.14539 4.029324,27.977229 17.445664,41.170373 36.870101,36.257218 0.967443,-0.244701 1.852017,-0.444765 1.965771,-0.444417 0.15975,4.88e-4 1.102554,1.561941 1.456242,2.411739 0.17193,0.413095 -4.737441,1.873277 -7.6755,2.283065 C 32.72583,71.750914 19.925837,55.588268 16.479614,26.188065 14.867594,12.435696 16.978462,5.1371932 21.124292,5.3376587 Z M 49.997465,18.731673 c 9.709917,0.244457 18.668529,6.801399 24.577311,18.654675 9.318364,18.69305 12.64043,53.544676 5.617228,58.929736 -3.843531,2.947027 -12.39844,-7.583898 -18.121891,-22.307682 -0.493027,-1.268329 -0.376142,-1.146187 0.981335,1.025777 C 73.553413,91.837322 80.561131,85.896246 76.159692,63.921162 71.704017,41.675296 60.463241,32.005302 43.048018,35.437113 c -0.451141,0.0889 -0.509653,-0.002 -2.246891,-3.468005 -0.981152,-1.9575 -2.449219,-4.825662 -3.261817,-6.373771 -1.718538,-3.27405 -1.794623,-2.899019 0.852145,-4.189925 3.891844,-1.898165 7.806477,-2.769396 11.60601,-2.673739 z"
       style="display:inline;fill:#ff002a"
       id="path1" /></g><g
     id="layer2"><path
       d="m 23.840922,11.183297 c -6.966121,-0.815546 -5.472366,24.669564 3.996655,39.534537 5.796326,9.099381 12.746667,12.180572 23.869861,10.582817 3.42191,-0.491529 3.300511,-0.450134 2.994649,-1.021643 C 54.474347,59.853473 54.072318,59.8568 50.57314,60.309497 41.641946,61.464951 35.215672,59.131273 30.114957,52.880493 18.086639,38.140139 15.806051,3.9390358 27.492895,13.558345 c 1.146488,0.943662 1.146892,0.943529 -0.146761,-0.307474 -1.341875,-1.297635 -2.510052,-1.951068 -3.505212,-2.067574 z"
       style="display:inline;fill:#ffffff;fill-opacity:1"
       id="path4" /><path
       d="m 26.066626,18.592663 c 1.297599,-0.03739 3.08009,0.982907 5.382617,3.430282 0.650794,0.691735 0.588007,0.746416 -0.341581,-0.114722 -9.072503,-8.404442 -7.944316,13.095105 1.244885,23.7231 3.772166,4.362791 8.957179,6.041232 14.698327,4.757849 2.056813,-0.459782 2.074675,-0.455186 2.808615,0.70745 0.512482,0.811824 0.512138,0.813453 -0.151412,0.707451 -0.305555,-0.04881 -1.423678,0.03316 -2.484603,0.181901 C 39.579293,53.05768 33.563169,49.919555 29.178581,42.634607 22.988898,32.350511 21.432344,18.726193 26.066626,18.592663 Z m 2.961576,4.966622 c 0.371374,-0.01285 0.784114,0.09064 1.230416,0.318327 0.884846,0.451413 1.014216,0.701603 0.215491,0.416512 -4.444414,-1.58636 -3.600949,8.23404 1.235066,15.345833 2.397901,3.526328 6.312941,6.69609 9.835059,7.150985 0.941461,0.121601 0.941517,0.121207 0.08682,0.123507 -6.483984,0.0175 -13.076727,-7.646929 -14.489038,-17.262512 -0.557483,-3.795567 0.276904,-6.036944 1.88619,-6.092652 z m 3.142961,5.878194 c 0.05697,-0.0146 0.118738,-0.01392 0.184485,0.0026 2.892614,0.726 7.715984,8.709884 6.186185,10.239685 -1.176556,1.176556 -4.434083,-1.210447 -6.074564,-4.451408 -1.020371,-2.015858 -1.150614,-5.571815 -0.296106,-5.790861 z m -5.832202,3.116089 c 0.0038,-0.116398 0.350826,0.826765 0.771529,2.095996 2.381111,7.18364 6.612375,12.387477 11.558984,14.21567 3.01786,1.115357 7.787884,0.699486 9.021155,-0.786515 0.752038,-0.906167 2.135648,1.247562 1.412833,1.575097 -0.362026,0.164045 -0.83114,-0.09586 -2.093929,0.204122 -7.025488,1.66895 -12.796857,-1.228717 -17.182413,-8.62738 -1.270639,-2.143634 -3.518569,-7.735773 -3.488159,-8.67699 z m 24.637255,5.60586 c 8.279382,-0.04075 14.636939,4.571502 19.24482,13.951086 5.556197,11.30993 7.00812,28.022552 2.588473,29.790946 -0.370067,0.14807 -0.690502,0.261664 -0.712102,0.251664 -0.0216,-0.0096 -0.282995,-0.07534 -0.580843,-0.146244 -1.366735,-0.32554 -3.276282,-1.884713 -5.113383,-4.174939 -1.15449,-1.439248 -3.226994,-4.379061 -3.08715,-4.379061 0.04392,0 0.449622,0.519319 0.901754,1.153935 7.35864,10.328653 12.306987,5.036128 9.27747,-9.922908 C 70.236105,48.591001 61.53951,39.85189 49.581469,40.652299 c -4.681805,0.313375 -4.327842,0.375227 -4.956286,-0.869715 -0.283405,-0.561421 -0.561801,-0.914834 -0.515731,-1.086755 0.02753,-0.102727 0.596351,-0.111818 1.324984,-0.167948 0.728632,-0.05613 2.465714,-0.190252 3.860229,-0.298173 0.569095,-0.04404 1.129592,-0.06756 1.681551,-0.07028 z"
       style="display:inline;fill:#ffffff;fill-opacity:1"
       id="path7" /><path
       d="m 42.607218,39.850797 c 0.02408,-0.08206 0.276177,0.406169 0.63252,1.307931 1.044864,2.64413 0.770485,3.877042 -0.979269,4.401281 -1.466946,0.439507 -3.130494,0.170838 -4.483447,-0.724503 -0.906257,-0.599733 -0.857463,-0.634153 0.364836,-0.253731 3.647719,1.135299 5.847836,-0.707656 4.694803,-3.933094 -0.176536,-0.493835 -0.243889,-0.748648 -0.229443,-0.797884 z"
       style="display:inline;opacity:0;fill:#ffffff;fill-opacity:1"
       id="path14" /><path
       d="m 55.046252,48.317981 c 2.278962,0.125933 5.173979,1.286062 7.56543,3.570841 5.572859,5.324277 9.506529,18.196948 6.415629,20.995101 -0.955106,0.864646 -2.395287,0.306011 -4.319633,-1.67535 -0.868453,-0.894184 -0.994231,-1.071573 -0.459921,-0.647506 3.421603,2.715637 5.085031,1.896521 5.064291,-2.492871 -0.04116,-8.712863 -6.798754,-18.013764 -13.151135,-18.100704 -3.109969,-0.04256 -4.349597,1.477052 -3.418396,4.190442 0.381861,1.112692 -0.22463,0.310011 -1.049549,-1.389062 -1.48833,-3.065495 0.42319,-4.612806 3.353284,-4.450891 z m 2.209167,4.710823 c 0.697651,-0.01479 1.583877,0.220252 2.638599,0.73949 4.504044,2.217333 8.915574,11.391861 7.163904,14.898315 -0.599326,1.199717 -1.802593,0.828002 -3.63182,-1.121378 -0.769228,-0.819758 -0.769219,-0.819408 -0.05891,-0.230994 4.928231,4.082508 4.357251,-5.352256 -0.633553,-10.469128 -4.050245,-4.152555 -7.641651,-2.674438 -5.671488,2.334224 0.554827,1.410513 0.341572,1.327596 -0.423747,-0.164848 -1.869021,-3.644769 -1.475935,-5.941299 0.617016,-5.985681 z"
       style="display:inline;opacity:0;fill:#ffffff;fill-opacity:1"
       id="path16" /></g></svg>
