<?xml version="1.0" encoding="UTF-8" standalone="no"?>
<!-- Created with Inkscape (http://www.inkscape.org/) -->

<svg
   viewBox="0 0 100 100"
   version="1.1"
   id="svg1"
   sodipodi:docname="boids-icon.svg"
   inkscape:version="1.4 (e7c3feb100, 2024-10-09)"
   xmlns:inkscape="http://www.inkscape.org/namespaces/inkscape"
   xmlns:sodipodi="http://sodipodi.sourceforge.net/DTD/sodipodi-0.dtd"
   xmlns="http://www.w3.org/2000/svg"
   xmlns:svg="http://www.w3.org/2000/svg">
  <sodipodi:namedview
     id="namedview1"
     pagecolor="#ffffff"
     bordercolor="#000000"
     borderopacity="0.25"
     inkscape:showpageshadow="2"
     inkscape:pageopacity="0.0"
     inkscape:pagecheckerboard="0"
     inkscape:deskcolor="#d1d1d1"
     inkscape:zoom="5.6568543"
     inkscape:cx="28.107494"
     inkscape:cy="43.752232"
     inkscape:window-width="1920"
     inkscape:window-height="1080"
     inkscape:window-x="0"
     inkscape:window-y="0"
     inkscape:window-maximized="1"
     inkscape:current-layer="g23" />
  <defs
     id="defs1" />
  <g
     id="layer1"
     style="display:none;opacity:0.089"
     sodipodi:insensitive="true">
    <path
       id="path1-7-6"
       style="fill:none;stroke:#ff002a;stroke-width:2.5;stroke-linecap:round;stroke-dasharray:none;stroke-opacity:1"
       d="m 73.579011,26.676247 a 7.8531638,7.8531638 0 0 1 -7.853164,7.853164 7.8531638,7.8531638 0 0 1 -7.853164,-7.853164 7.8531638,7.8531638 0 0 1 7.853164,-7.853164 7.8531638,7.8531638 0 0 1 7.853164,7.853164 z" />
    <path
       id="path1-7-6-6"
       style="fill:none;stroke:#ff002a;stroke-width:2.5;stroke-linecap:round;stroke-dasharray:none;stroke-opacity:1"
       d="m 78.525484,52.462786 a 7.8531638,7.8531638 0 0 1 -7.853164,7.853164 7.8531638,7.8531638 0 0 1 -7.853164,-7.853164 7.8531638,7.8531638 0 0 1 7.853164,-7.853164 7.8531638,7.8531638 0 0 1 7.853164,7.853164 z" />
    <path
       id="path1-7-6-1"
       style="fill:none;stroke:#ff002a;stroke-width:2.5;stroke-linecap:round;stroke-dasharray:none;stroke-opacity:1"
       d="m 58.429108,45.856576 a 7.8531638,7.8531638 0 0 1 -7.853164,7.853164 7.8531638,7.8531638 0 0 1 -7.853164,-7.853164 7.8531638,7.8531638 0 0 1 7.853164,-7.853164 7.8531638,7.8531638 0 0 1 7.853164,7.853164 z" />
    <path
       id="path1-7-6-1-5"
       style="fill:none;stroke:#ff002a;stroke-width:2.5;stroke-linecap:round;stroke-dasharray:none;stroke-opacity:1"
       d="m 33.951336,18.628272 a 7.8531638,7.8531638 0 0 1 -7.853164,7.853164 7.8531638,7.8531638 0 0 1 -7.853164,-7.853164 7.8531638,7.8531638 0 0 1 7.853164,-7.853164 7.8531638,7.8531638 0 0 1 7.853164,7.853164 z" />
    <path
       id="path1-7-6-1-5-2"
       style="fill:none;stroke:#ff002a;stroke-width:2.5;stroke-linecap:round;stroke-dasharray:none;stroke-opacity:1"
       d="m 32.876976,52.632392 a 7.8531638,7.8531638 0 0 1 -7.853164,7.853164 7.8531638,7.8531638 0 0 1 -7.853164,-7.853164 7.8531638,7.8531638 0 0 1 7.853164,-7.853164 7.8531638,7.8531638 0 0 1 7.853164,7.853164 z" />
    <path
       id="path1-7-6-1-5-2-7"
       style="fill:none;stroke:#ff002a;stroke-width:2.5;stroke-linecap:round;stroke-dasharray:none;stroke-opacity:1"
       d="m 68.947929,82.763274 a 7.8531638,7.8531638 0 0 1 -7.853164,7.853164 7.8531638,7.8531638 0 0 1 -7.853164,-7.853164 7.8531638,7.8531638 0 0 1 7.853164,-7.853164 7.8531638,7.8531638 0 0 1 7.853164,7.853164 z" />
    <path
       style="fill:#ff0013;fill-opacity:1;stroke:#ff002a;stroke-width:2.5;stroke-linecap:round;stroke-dasharray:none;stroke-opacity:1"
       d="M 25.023812,52.632392 50.575944,45.856576"
       id="path2" />
    <path
       style="fill:#ff0013;fill-opacity:1;stroke:#ff002a;stroke-width:2.5;stroke-linecap:round;stroke-dasharray:none;stroke-opacity:1"
       d="M 65.725847,26.676247 52.874331,42.946735 50.575944,45.856576"
       id="path3" />
    <path
       style="fill:#ff0013;fill-opacity:1;stroke:#ff002a;stroke-width:2.5;stroke-linecap:round;stroke-dasharray:none;stroke-opacity:1"
       d="M 61.094765,82.763274 50.260252,45.961807"
       id="path4" />
    <path
       style="fill:#ff0013;fill-opacity:1;stroke:#ff002a;stroke-width:2.5;stroke-linecap:round;stroke-dasharray:none;stroke-opacity:1"
       d="M 70.67232,52.462786 50.575944,45.856576"
       id="path4-6" />
    <path
       style="fill:#ff0013;fill-opacity:1;stroke:#ff002a;stroke-width:2.5;stroke-linecap:round;stroke-dasharray:none;stroke-opacity:1"
       d="M 26.098172,18.628272 50.575943,45.856575"
       id="path5" />
  </g>
  <rect
     style="display:none;fill:#37fffb;fill-opacity:0.525991;stroke:none;stroke-width:2.5;stroke-dasharray:none"
     id="rect1"
     width="66.633408"
     height="24.705421"
     x="22.137777"
     y="67.161018"
     sodipodi:insensitive="true" />
  <g
     inkscape:groupmode="layer"
     id="g22"
     inkscape:label="Layer 3"
     style="display:inline;fill:none;stroke-width:3.94801;stroke-dasharray:none"
     transform="matrix(-0.28059816,-0.56766693,0.56766693,-0.28059816,25.231122,139.73563)"
     inkscape:transform-center-x="-13.799664"
     inkscape:transform-center-y="22.529093">
    <g
       id="g23"
       transform="rotate(84.545886,107.74916,73.612156)"
       inkscape:transform-center-x="0.061435889"
       inkscape:transform-center-y="-7.6921508">
      <g
         id="g32"
         inkscape:transform-center-x="19.852528"
         inkscape:transform-center-y="13.044303"
         style="display:inline;fill:none;stroke-width:4.25449;stroke-dasharray:none"
         transform="matrix(0.92753549,0.02819238,-0.02819238,0.92753549,51.069568,14.147333)">
        <g
           id="g31-9-9"
           transform="matrix(0.90823447,-0.01031618,0.01138746,0.82279211,-23.310941,-14.811478)"
           inkscape:transform-center-x="19.378156"
           inkscape:transform-center-y="0.36253926"
           style="display:inline;fill:none;stroke-width:4.92118;stroke-dasharray:none">
          <path
             style="opacity:1;fill:none;stroke:#ff002a;stroke-width:4.92118;stroke-dasharray:none;stroke-opacity:1"
             d="m 114.83221,102.18676 c 0,0 -42.669938,-32.211098 -42.669938,-0.5351 0,31.676 42.669938,0.5351 42.669938,0.5351 z"
             id="path29-2-4"
             sodipodi:nodetypes="czc" />
        </g>
        <g
           id="g8"
           transform="matrix(0.90823447,-0.01031618,0.01138746,0.82279211,-66.415744,-15.007249)"
           inkscape:transform-center-x="19.378157"
           inkscape:transform-center-y="0.36253913"
           style="display:inline;fill:none;stroke-width:4.92118;stroke-dasharray:none">
          <path
             style="opacity:1;fill:none;stroke:#ff002a;stroke-width:4.92118;stroke-dasharray:none;stroke-opacity:1"
             d="m 114.83221,102.18676 c 0,0 -26.588852,-32.009543 -26.588852,-0.33355 0,31.676 26.588852,0.33355 26.588852,0.33355 z"
             id="path6"
             sodipodi:nodetypes="czc" />
        </g>
      </g>
      <g
         id="g14"
         inkscape:transform-center-x="-1.2885598"
         inkscape:transform-center-y="-21.77172"
         style="display:inline;fill:none;stroke-width:4.25449;stroke-dasharray:none"
         transform="matrix(-0.52349899,0.76620212,-0.76620212,-0.52349899,225.53978,49.7474)">
        <g
           id="g10"
           transform="matrix(0.90622135,-0.06131181,0.05758244,0.8208537,-27.790202,-8.5670368)"
           inkscape:transform-center-x="0.27093303"
           inkscape:transform-center-y="-13.382638"
           style="display:inline;fill:none;stroke-width:4.92118;stroke-dasharray:none">
          <path
             style="opacity:1;fill:none;stroke:#ff002a;stroke-width:4.92118;stroke-dasharray:none;stroke-opacity:1"
             d="m 114.83221,102.18676 c 0,0 -42.669938,-32.211098 -42.669938,-0.5351 0,31.676 42.669938,0.5351 42.669938,0.5351 z"
             id="path8"
             sodipodi:nodetypes="czc" />
        </g>
        <g
           id="g13"
           transform="matrix(0.90622135,-0.06131181,0.05758244,0.8208537,-70.837957,-6.3414734)"
           inkscape:transform-center-x="0.37863623"
           inkscape:transform-center-y="-34.421144"
           style="display:inline;fill:none;stroke-width:4.92118;stroke-dasharray:none">
          <path
             style="opacity:1;fill:none;stroke:#ff002a;stroke-width:4.92118;stroke-dasharray:none;stroke-opacity:1"
             d="m 114.83221,102.18676 c 0,0 -26.588852,-32.009543 -26.588852,-0.33355 0,31.676 26.588852,0.33355 26.588852,0.33355 z"
             id="path11"
             sodipodi:nodetypes="czc" />
        </g>
      </g>
      <g
         id="g21"
         inkscape:transform-center-x="-19.746922"
         inkscape:transform-center-y="12.981245"
         style="display:inline;fill:none;stroke-width:4.25449;stroke-dasharray:none"
         transform="matrix(-0.44744146,-0.81296557,0.81296557,-0.44744146,111.5359,179.77908)">
        <g
           id="g17"
           transform="matrix(0.90823447,-0.01031618,0.01138746,0.82279211,-23.310941,-14.811478)"
           inkscape:transform-center-x="19.378156"
           inkscape:transform-center-y="0.36253926"
           style="display:inline;fill:none;stroke-width:4.92118;stroke-dasharray:none">
          <path
             style="opacity:1;fill:none;stroke:#ff002a;stroke-width:4.92118;stroke-dasharray:none;stroke-opacity:1"
             d="m 114.83221,102.18676 c 0,0 -42.669938,-32.211098 -42.669938,-0.5351 0,31.676 42.669938,0.5351 42.669938,0.5351 z"
             id="path15"
             sodipodi:nodetypes="czc" />
        </g>
        <g
           id="g20"
           transform="matrix(0.90823447,-0.01031618,0.01138746,0.82279211,-66.415744,-15.007249)"
           inkscape:transform-center-x="19.378157"
           inkscape:transform-center-y="0.36253913"
           style="display:inline;fill:none;stroke-width:4.92118;stroke-dasharray:none">
          <path
             style="opacity:1;fill:none;stroke:#ff002a;stroke-width:4.92118;stroke-dasharray:none;stroke-opacity:1"
             d="m 114.83221,102.18676 c 0,0 -26.588852,-32.009543 -26.588852,-0.33355 0,31.676 26.588852,0.33355 26.588852,0.33355 z"
             id="path18"
             sodipodi:nodetypes="czc" />
        </g>
      </g>
    </g>
  </g>
</svg>

