<?xml version="1.0" encoding="UTF-8" standalone="no"?>
<!-- Created with Inkscape (http://www.inkscape.org/) -->

<svg
   viewBox="0 0 100 100"
   version="1.1"
   id="svg1"
   xml:space="preserve"
   xmlns="http://www.w3.org/2000/svg"
   xmlns:svg="http://www.w3.org/2000/svg"><defs
     id="defs1" /><path
     d="m 20.440876,2.0927159 c 3.575741,-0.4806603 6.042688,2.7157781 8.059814,5.1699207 2.695059,3.6567024 5.416855,9.7889664 8.337531,13.2355724 1.515532,1.788433 19.330457,-8.544489 30.376861,2.339553 7.873491,7.102243 11.504549,17.492303 14.481979,27.380612 3.162387,11.680898 5.202012,23.866147 4.303476,35.993749 C 85.43752,90.05646 85.63589,96.784361 81.721314,98.768203 77.514524,99.57591 73.075848,92.891479 70.826664,89.976537 65.579447,81.390288 63.662516,76.223759 60.561546,68.437755 59.819922,67.395385 59.201708,68.198963 51.092645,69.342131 43.155798,70.450509 35.062894,67.175252 29.639692,61.392387 21.342147,52.945167 17.363882,41.225928 15.428596,29.76453 14.343054,22.206791 13.116986,14.248351 15.353015,6.789864 16.157318,4.5362138 17.919482,2.3538455 20.440876,2.0927159 Z m 0.347598,1.6124253 c -3.689782,0.608793 -4.795414,4.3829725 -4.848881,7.5858498 -0.780094,8.064735 0.651838,15.422733 2.158788,22.966574 2.017006,9.340079 5.654785,18.66762 12.433661,25.6057 5.51903,6.088964 14.181858,9.008577 22.263695,7.462831 4.333809,-1.027337 7.728607,-1.295372 5.418957,-3.444485 C 43.974873,64.890563 34.530633,65.595176 25.863765,51.142445 20.603792,41.92794 18.478261,31.248595 17.676644,20.779053 17.764237,16.060017 16.919663,10.559497 20.02702,6.576757 c 2.309468,-2.1038855 5.697446,0.7762963 7.40004,2.7887022 3.566914,4.2159728 3.61543,5.8568738 4.07418,5.6569548 C 31.95999,14.822493 29.67043,10.373572 28.028148,8.5625435 26.075986,6.4097981 23.958549,3.9201468 20.788474,3.7051412 Z m 2.155008,5.487189 c -3.065453,1.0912468 -2.809328,4.9224218 -3.14621,7.6529258 -0.419266,10.220926 2.032161,20.50244 6.586882,29.637175 3.278278,6.175703 8.231186,12.174103 15.388903,13.735554 4.519846,0.726191 9.301939,0.713505 13.760814,-0.365157 C 54.735486,56.953329 38.552617,64.568773 29.223596,49.745731 23.769526,41.595839 21.537016,31.823286 20.696873,22.133553 20.297892,8.0122655 23.694618,10.577966 27.060389,12.059706 26.668676,10.865121 24.720786,8.6678729 22.943482,9.1923302 Z M 38.250296,23.620592 c 0.900903,3.443264 3.132215,6.443069 4.646561,9.658113 1.852704,1.483074 19.276056,-4.19142 28.305749,12.249034 4.947381,8.533196 7.01349,18.497156 7.584481,28.255338 -0.04502,3.39472 0.164939,7.630535 -2.739388,9.955114 -3.549019,1.229595 -6.201508,-2.313506 -8.38404,-4.552833 C 65.985949,77.657894 87.238972,121.84542 83.903291,72.85373 82.866821,63.964261 77.888944,23.216539 55.888525,20.048941 47.81215,18.968456 40.114922,22.218674 38.250296,23.620592 Z m -5.675531,4.109869 c -2.789115,1.531591 0.198655,7.18141 2.691844,9.158521 1.826457,1.448389 4.087018,1.002395 3.77883,-1.758313 -0.363533,-3.256501 -3.598497,-8.977408 -6.470674,-7.400208 z m -5.675526,3.91416 c 0.302682,0.605363 0.220834,0.441666 0,0 z m 18.960386,6.584247 c 1.220428,-0.08915 10.83422,0.517347 15.352026,3.3288 7.676584,4.085922 11.328227,12.768211 13.244612,20.81306 0.871097,5.05425 2.236826,10.592467 -5e-6,15.46093 -2.173394,4.056948 -6.808263,-1.835501 -7.632599,-1.565656 1.784951,2.217396 3.780095,5.088838 6.849777,5.284132 3.021985,-1.055263 3.023262,-5.039229 3.178539,-7.736003 C 76.720016,64.067527 74.137531,54.15722 68.756158,45.967982 58.846954,32.633598 40.990151,37.833863 45.859625,38.228868 Z M 26.507813,18.923422 c 1.757465,-1.749226 4.392057,0.896415 5.479818,1.369959 0.213669,0.09302 0.257464,-0.473155 0.153968,-0.681948 -1.012424,-2.042433 -4.597745,-3.866719 -6.2209,-2.840618 -2.640866,1.207224 -2.216022,4.842267 -2.190181,7.237564 0.674857,7.169484 3.479297,14.136344 7.66998,19.965845 3.450565,5.012999 12.890931,11.02259 21.590837,10.209131 2.085135,-0.194963 2.455941,-3.057013 -0.08534,-3.185424 C 31.531205,52.358241 21.899197,26.150283 26.50781,18.923422 Z"
     style="color:#000000;font-variant-numeric:normal;font-variant-alternates:normal;font-variant-east-asian:normal;font-feature-settings:normal;font-variation-settings:normal;text-indent:0;text-align:start;text-decoration-line:none;text-decoration-style:solid;text-decoration-color:#000000;letter-spacing:normal;word-spacing:normal;text-transform:none;writing-mode:lr-tb;direction:ltr;text-orientation:mixed;dominant-baseline:auto;baseline-shift:baseline;text-anchor:start;white-space:normal;shape-padding:0;shape-margin:0;inline-size:0;clip-rule:nonzero;display:inline;overflow:visible;visibility:visible;isolation:auto;mix-blend-mode:normal;color-interpolation:sRGB;color-interpolation-filters:linearRGB;solid-color:#000000;solid-opacity:1;vector-effect:none;fill:#ff002a;fill-opacity:1;fill-rule:nonzero;stroke:none;stroke-width:0.562049;stroke-linecap:butt;stroke-linejoin:miter;stroke-miterlimit:4;stroke-dasharray:none;stroke-dashoffset:0;stroke-opacity:1;-inkscape-stroke:none;color-rendering:auto;image-rendering:auto;shape-rendering:auto;text-rendering:auto;enable-background:accumulate;stop-color:#000000"
     id="path1" /></svg>
