<?xml version="1.0" encoding="UTF-8" standalone="no"?>
<!-- Created with Inkscape (http://www.inkscape.org/) -->

<svg
   viewBox="0 0 100 100"
   version="1.1"
   id="svg1"
   xmlns="http://www.w3.org/2000/svg"
   xmlns:svg="http://www.w3.org/2000/svg">
  <defs
     id="defs1" />
  <g
     id="layer1">
    <path
       id="path1-7-6"
       style="fill:none;stroke:#ff002a;stroke-width:2.5;stroke-linecap:round;stroke-dasharray:none;stroke-opacity:1"
       d="m 73.579011,26.676247 a 7.8531638,7.8531638 0 0 1 -7.853164,7.853164 7.8531638,7.8531638 0 0 1 -7.853164,-7.853164 7.8531638,7.8531638 0 0 1 7.853164,-7.853164 7.8531638,7.8531638 0 0 1 7.853164,7.853164 z" />
    <path
       id="path1-7-6-6"
       style="fill:none;stroke:#ff002a;stroke-width:2.5;stroke-linecap:round;stroke-dasharray:none;stroke-opacity:1"
       d="m 78.525484,52.462786 a 7.8531638,7.8531638 0 0 1 -7.853164,7.853164 7.8531638,7.8531638 0 0 1 -7.853164,-7.853164 7.8531638,7.8531638 0 0 1 7.853164,-7.853164 7.8531638,7.8531638 0 0 1 7.853164,7.853164 z" />
    <path
       id="path1-7-6-1"
       style="fill:none;stroke:#ff002a;stroke-width:2.5;stroke-linecap:round;stroke-dasharray:none;stroke-opacity:1"
       d="m 58.429108,45.856576 a 7.8531638,7.8531638 0 0 1 -7.853164,7.853164 7.8531638,7.8531638 0 0 1 -7.853164,-7.853164 7.8531638,7.8531638 0 0 1 7.853164,-7.853164 7.8531638,7.8531638 0 0 1 7.853164,7.853164 z" />
    <path
       id="path1-7-6-1-5"
       style="fill:none;stroke:#ff002a;stroke-width:2.5;stroke-linecap:round;stroke-dasharray:none;stroke-opacity:1"
       d="m 33.951336,18.628272 a 7.8531638,7.8531638 0 0 1 -7.853164,7.853164 7.8531638,7.8531638 0 0 1 -7.853164,-7.853164 7.8531638,7.8531638 0 0 1 7.853164,-7.853164 7.8531638,7.8531638 0 0 1 7.853164,7.853164 z" />
    <path
       id="path1-7-6-1-5-2"
       style="fill:none;stroke:#ff002a;stroke-width:2.5;stroke-linecap:round;stroke-dasharray:none;stroke-opacity:1"
       d="m 32.876976,52.632392 a 7.8531638,7.8531638 0 0 1 -7.853164,7.853164 7.8531638,7.8531638 0 0 1 -7.853164,-7.853164 7.8531638,7.8531638 0 0 1 7.853164,-7.853164 7.8531638,7.8531638 0 0 1 7.853164,7.853164 z" />
    <path
       id="path1-7-6-1-5-2-7"
       style="fill:none;stroke:#ff002a;stroke-width:2.5;stroke-linecap:round;stroke-dasharray:none;stroke-opacity:1"
       d="m 68.947929,82.763274 a 7.8531638,7.8531638 0 0 1 -7.853164,7.853164 7.8531638,7.8531638 0 0 1 -7.853164,-7.853164 7.8531638,7.8531638 0 0 1 7.853164,-7.853164 7.8531638,7.8531638 0 0 1 7.853164,7.853164 z" />
    <path
       style="fill:#ff0013;fill-opacity:1;stroke:#ff002a;stroke-width:2.5;stroke-linecap:round;stroke-dasharray:none;stroke-opacity:1"
       d="M 25.023812,52.632392 50.575944,45.856576"
       id="path2" />
    <path
       style="fill:#ff0013;fill-opacity:1;stroke:#ff002a;stroke-width:2.5;stroke-linecap:round;stroke-dasharray:none;stroke-opacity:1"
       d="M 65.725847,26.676247 52.874331,42.946735 50.575944,45.856576"
       id="path3" />
    <path
       style="fill:#ff0013;fill-opacity:1;stroke:#ff002a;stroke-width:2.5;stroke-linecap:round;stroke-dasharray:none;stroke-opacity:1"
       d="M 61.094765,82.763274 50.260252,45.961807"
       id="path4" />
    <path
       style="fill:#ff0013;fill-opacity:1;stroke:#ff002a;stroke-width:2.5;stroke-linecap:round;stroke-dasharray:none;stroke-opacity:1"
       d="M 70.67232,52.462786 50.575944,45.856576"
       id="path4-6" />
    <path
       style="fill:#ff0013;fill-opacity:1;stroke:#ff002a;stroke-width:2.5;stroke-linecap:round;stroke-dasharray:none;stroke-opacity:1"
       d="M 26.098172,18.628272 50.575943,45.856575"
       id="path5" />
  </g>
</svg>
